<svg xmlns="http://www.w3.org/2000/svg" viewBox="-2022.5 -1903.779 225.635 39.279">
  <defs>
    <style>
      .cls-1, .cls-2 {
        fill: none;
        stroke-linecap: round;
        stroke-linejoin: round;
        stroke-miterlimit: 10;
        stroke-width: 9px;
      }

      .cls-1 {
        stroke: #fff;
      }

      .cls-2 {
        stroke: #000;
      }

      .cls-3 {
        fill: #c32421;
      }

      .cls-4 {
        fill: #1b5e83;
      }

      .cls-5 {
        fill: #1b5e82;
      }

      .cls-6 {
        fill: #fff;
      }

      .cls-7 {
        fill: #c22420;
      }
    </style>
  </defs>
  <g id="Group_18" data-name="Group 18" transform="translate(-2022.4 -1903.779)">
    <g id="Group_8" data-name="Group 8" transform="translate(4.4 4.5)">
      <g id="Group_1" data-name="Group 1" transform="translate(42.765 1.938)">
        <path id="Path_151" data-name="Path 151" class="cls-1" d="M760.728,58.105a15.364,15.364,0,0,1-.464,1.692,5.43,5.43,0,0,1-3.439,3.166A11.879,11.879,0,0,1,746.7,61.735c.682-1.31,1.337-2.62,2.02-3.957.218.136.409.246.6.355a7.116,7.116,0,0,0,4.639,1.119,1.142,1.142,0,0,0,1.092-1.01,1.126,1.126,0,0,0-.955-1.174c-1.037-.273-2.074-.546-3.111-.791-2.183-.546-3.439-2.429-2.975-4.994a5.156,5.156,0,0,1,3.493-4.176,12.158,12.158,0,0,1,8.76.409c-.655,1.228-1.255,2.374-1.856,3.521a19.892,19.892,0,0,0-2.675-.628,3.539,3.539,0,0,0-1.665.3,1.077,1.077,0,0,0-.546.846,1.105,1.105,0,0,0,.546.764,5.855,5.855,0,0,0,1.228.382c1.037.327,2.1.6,3.084,1.01a3.583,3.583,0,0,1,2.238,3.084,2.99,2.99,0,0,0,.136.464C760.728,57.532,760.728,57.805,760.728,58.105Z" transform="translate(-586.884 -36.955)"/>
        <path id="Path_152" data-name="Path 152" class="cls-1" d="M167.159,44.32H161.1v-23.8a3.039,3.039,0,0,1,.464-.055c3.275,0,6.577-.027,9.852,0a7.59,7.59,0,0,1,6,2.62,6.743,6.743,0,0,1,1.61,3.848,9.859,9.859,0,0,1-.491,5.1,6.685,6.685,0,0,1-6.222,4.285c-1.446.082-2.92.055-4.367.082-.819,0-.819,0-.819.791V43.61A5.709,5.709,0,0,1,167.159,44.32Zm0-18.994c0,2.047,0,3.875.027,5.731,0,.136.273.355.409.355a23.046,23.046,0,0,0,2.756-.109,3.028,3.028,0,0,0,1.419-.546c1.064-.764,1.037-1.91.9-3.057a2.193,2.193,0,0,0-1.8-2.074C169.7,25.407,168.469,25.435,167.159,25.325Z" transform="translate(-161.1 -18.039)"/>
        <path id="Path_153" data-name="Path 153" class="cls-1" d="M625.348,37.636h-5.622V36.9c0-2.62,0-5.213-.027-7.832a9.733,9.733,0,0,0-.109-1.283,2.287,2.287,0,0,0-1.583-1.938,3.083,3.083,0,0,0-3.329,1.037,3.955,3.955,0,0,0-.628,2.347v8.406H608.4V11.6h5.622V23.635c.328-.3.519-.491.71-.655a6.864,6.864,0,0,1,9.525.491,4.383,4.383,0,0,1,1.037,2.893c.055,3.684.027,7.369.055,11.026C625.4,37.445,625.375,37.526,625.348,37.636Z" transform="translate(-486.328 -11.6)"/>
        <path id="Path_154" data-name="Path 154" class="cls-1" d="M364.33,26.684a6.889,6.889,0,0,0-9.825-.9,6.731,6.731,0,0,0-.273,9.252c1.992,2.156,6.523,3.138,10.07-.491v7.2c-5.158,2.347-11.517,1.146-15.065-2.866A12.445,12.445,0,0,1,352.9,19.534a12.92,12.92,0,0,1,11.08-.327.616.616,0,0,1,.355.464C364.357,21.963,364.33,24.255,364.33,26.684Z" transform="translate(-295.612 -16.341)"/>
        <path id="Path_155" data-name="Path 155" class="cls-1" d="M687.96,48.4V47.011h5.731V62.949h-5.7V61.421c-.109.055-.191.055-.218.082-2.1,2.675-6.959,2.429-9.5.437a9.054,9.054,0,0,1-.764-13.373,7.855,7.855,0,0,1,9.5-.982A11.057,11.057,0,0,0,687.96,48.4Zm-7.178,6.577a3.7,3.7,0,0,0,7.4.055,3.7,3.7,0,1,0-7.4-.055Z" transform="translate(-534.694 -36.914)"/>
        <path id="Path_156" data-name="Path 156" class="cls-1" d="M433.922,62.924h-5.595V61.368c-.164.082-.246.082-.3.136-1.828,1.992-4.121,2.211-6.632,1.747-3.248-.628-6.2-4.285-6.2-7.887a9.251,9.251,0,0,1,2.483-6.741c2.347-2.429,7.4-3.3,10.234-.491a3.233,3.233,0,0,0,.327.218V46.959h5.649C433.922,52.28,433.922,57.575,433.922,62.924Zm-5.485-7.942a3.7,3.7,0,0,0-3.684-3.739,3.782,3.782,0,0,0-3.684,3.712,3.845,3.845,0,0,0,3.739,3.684A3.743,3.743,0,0,0,428.436,54.982Z" transform="translate(-345.854 -36.888)"/>
        <path id="Path_157" data-name="Path 157" class="cls-1" d="M282.832,47.3a9.842,9.842,0,0,1,7.041,2.62,7.755,7.755,0,0,1,2.238,8.105,8.1,8.1,0,0,1-6.086,5.949,12.536,12.536,0,0,1-6.877-.109,8.553,8.553,0,0,1-5.977-7.7c-.246-4.83,3.712-8.105,7.478-8.651C281.386,47.409,282.1,47.382,282.832,47.3ZM282.8,59.472a3.671,3.671,0,1,0,.027-7.341,3.671,3.671,0,1,0-.027,7.341Z" transform="translate(-242.578 -37.557)"/>
        <path id="Path_158" data-name="Path 158" class="cls-1" d="M507.993,63.28h-5.649V55.174q0-.86-.082-1.719c-.164-1.583-1.719-2.456-3.439-1.938-1.365.409-2.074,1.528-2.1,3.248v8.46H491.1V47.315h5.622v1.828a1.97,1.97,0,0,0,.409-.355,7.03,7.03,0,0,1,9.443-.191,4.648,4.648,0,0,1,1.446,3.248C508.02,55.666,507.993,59.432,507.993,63.28Z" transform="translate(-401.04 -37.244)"/>
        <path id="Path_159" data-name="Path 159" class="cls-1" d="M570.045,58.033c0,1.474,0,2.893-.027,4.312a.66.66,0,0,1-.355.519,9.115,9.115,0,0,1-8.87-.846,7.883,7.883,0,0,1-3.466-7.86,8.451,8.451,0,0,1,8.215-7.587,8.3,8.3,0,0,1,4.066.71.74.74,0,0,1,.382.519c.027,1.446.027,2.866.027,4.421a4.841,4.841,0,0,0-4.476-.764,3.518,3.518,0,0,0-1.883,1.61,4.12,4.12,0,0,0,.519,4.749C565.624,59.316,567.588,59.4,570.045,58.033Z" transform="translate(-449.146 -37.019)"/>
        <path id="Path_160" data-name="Path 160" class="cls-1" d="M235.458,64.76c-1.828,0-3.548,0-5.267-.027-.136,0-.3-.246-.382-.382-.055-.082-.027-.246-.027-.355V49.559c0-.6.136-.819.791-.791,1.61.055,3.193.027,4.885.027V51.06a23.712,23.712,0,0,1,2.265-1.828,6,6,0,0,1,3.712-.628c.136,0,.382.218.382.355.027,1.61.027,3.248.027,4.858a22.07,22.07,0,0,0-2.211-.382,3.3,3.3,0,0,0-3.575,1.828,6.7,6.7,0,0,0-.546,2.429c-.082,2.1-.027,4.23-.027,6.359A5.285,5.285,0,0,0,235.458,64.76Z" transform="translate(-211.033 -38.478)"/>
      </g>
      <g id="Group_2" data-name="Group 2" transform="translate(0)">
        <path id="Path_161" data-name="Path 161" class="cls-1" d="M68.327,26.519a11.729,11.729,0,0,1,2.129-.791,14.171,14.171,0,0,1,2.838-.355,17.033,17.033,0,0,1,2.647.191c.791.109,1.583.218,2.4.3.873.082,1.747.164,2.593.218.573.027,1.146,0,1.719-.027s1.146-.082,1.719-.164a11.1,11.1,0,0,0,2.975-.764c.027,0,.027-.027.055-.027a13.65,13.65,0,0,1-1.665,1.119,12.451,12.451,0,0,1-3.875,1.392,4.879,4.879,0,0,1-1.665.055c-.546-.055-1.064-.082-1.61-.136-.6-.055-1.2-.136-1.774-.191-.491-.055-1.01-.109-1.5-.191-.546-.082-1.119-.164-1.665-.246-.491-.055-.955-.136-1.446-.191a16.862,16.862,0,0,0-2.62-.136H68.409c-.027,0-.082-.027-.109-.027C68.327,26.546,68.327,26.546,68.327,26.519Z" transform="translate(-50.861 -19.478)"/>
        <path id="Path_162" data-name="Path 162" class="cls-1" d="M61.355,33.274c.027,0,.055-.027.082-.027A5.882,5.882,0,0,1,64,32.864a14.635,14.635,0,0,1,1.91.273c1.037.218,2.074.409,3.111.6.628.109,1.228.246,1.856.327.6.082,1.2.136,1.774.191.437.027.873.055,1.31.055.464,0,.928-.027,1.392-.055.164,0,.327-.027.491-.027v.027a6.788,6.788,0,0,1-.764.409,7.736,7.736,0,0,1-2.565.764,6.857,6.857,0,0,1-2.784-.218c-.791-.218-1.583-.491-2.4-.737-1.064-.327-2.156-.655-3.22-.955a6.607,6.607,0,0,0-2.047-.273,6.239,6.239,0,0,0-.682.055H61.3C61.382,33.3,61.382,33.3,61.355,33.274Z" transform="translate(-45.771 -25.114)"/>
        <path id="Path_163" data-name="Path 163" class="cls-1" d="M66.6,37.5a4.745,4.745,0,0,1,1.528.464,6.2,6.2,0,0,0,1.365.464c1.037.218,2.074.409,3.084.628a6.8,6.8,0,0,1,1.01.246c-.355.027-.737.082-1.092.109l-1.61.164c-.437.055-.873.082-1.31.136-.027,0-.082-.027-.082-.055a9.2,9.2,0,0,0-2.647-2.047A.49.49,0,0,1,66.6,37.5Z" transform="translate(-49.625 -28.494)"/>
        <path id="Path_164" data-name="Path 164" class="cls-1" d="M4.427,21.338c.027-.191.027-.382.055-.6a12.439,12.439,0,0,1,1.583-5.294A12.919,12.919,0,0,1,14.58,9a11.872,11.872,0,0,1,2.62-.327,12.821,12.821,0,0,1,2.893.246.346.346,0,0,0,.164-.027,13.044,13.044,0,0,1,2.4-1.174,7.651,7.651,0,0,1,1.365-.327,10.328,10.328,0,0,1,2.047-.136c.573.027,1.146.055,1.719.109.491.027,1.01.082,1.5.109.546.055,1.092.109,1.665.136.491.055.955.082,1.446.136.464.027.9.082,1.365.136.437.027.9.082,1.337.109.873.055,1.747.082,2.647.109a5.718,5.718,0,0,0,1.665-.246,9.948,9.948,0,0,0,3.22-1.392,6.608,6.608,0,0,0,1.883-1.91c.027-.027.027-.055.082-.055-.109.218-.191.409-.3.628-.327.628-.628,1.255-.982,1.856a5.348,5.348,0,0,1-2.866,2.374,11.259,11.259,0,0,1-2.1.519,13.63,13.63,0,0,1-3.166.191c-.546-.027-1.064-.055-1.61-.109-.519-.027-1.037-.082-1.556-.136-.546-.055-1.064-.082-1.61-.136-.491-.027-.982-.082-1.474-.109-.628-.027-1.228-.082-1.856-.109a11.3,11.3,0,0,0-1.665.027,8.392,8.392,0,0,0-3.138.846c-1.174.6-2.347,1.2-3.548,1.8-.327.164-.628.3-.955.437a.246.246,0,0,1-.136.027,8.817,8.817,0,0,0-4.53,1.146c-.027,0-.027.027-.055.027-.6-.9-1.228-1.774-1.856-2.7-.246.164-.519.327-.791.491.628.9,1.228,1.8,1.828,2.675-.164.136-.355.273-.519.409a8.863,8.863,0,0,0-3,4.585c-.027.082-.027.164-.164.136-1.01-.191-2.02-.355-3.057-.519-.082,0-.109,0-.136.082l-.164.819c1.092.191,2.183.382,3.275.546a9.239,9.239,0,0,0,1.228,6.113c-.9.655-1.8,1.337-2.729,2.02.164.246.355.519.519.764.928-.682,1.828-1.337,2.729-2.02a8.894,8.894,0,0,0,5.24,3.357c-.027.3-.082.6-.109.9-.082.546-.136,1.092-.218,1.61a7.356,7.356,0,0,1-.109.764c-.027.109,0,.136.109.164.218.027.437.082.628.109h.136a6.374,6.374,0,0,1,.109-.71l.246-1.8c.027-.246.082-.519.109-.764,0-.082.027-.136.136-.109.409.027.791.055,1.2.055a8.746,8.746,0,0,0,3.6-.873c.382-.191.737-.409,1.146-.6q1.064,1.31,2.129,2.7c.246-.191.491-.382.737-.546l-2.129-2.7a9.3,9.3,0,0,0,3.193-5.349c1.119.109,2.238.218,3.384.327.027-.246.055-.491.082-.71s0-.218-.191-.218c-.519-.055-1.037-.109-1.528-.164s-.982-.109-1.474-.136c-.109,0-.136-.027-.109-.136a9.091,9.091,0,0,0-1.583-5.786c0-.027-.027-.027-.027-.055v-.027a14.216,14.216,0,0,0,4.094-.846c.191.437.409.873.6,1.31a12.47,12.47,0,0,1,.819,3.111,11.879,11.879,0,0,1,.055,2.784,13.1,13.1,0,0,1-10.07,11.6,11.787,11.787,0,0,1-3.384.327,12.743,12.743,0,0,1-7.86-2.975,12.97,12.97,0,0,1-4.421-7.178,14.191,14.191,0,0,1-.327-2.374A.164.164,0,0,0,4.4,22.13C4.427,21.857,4.427,21.584,4.427,21.338Z" transform="translate(-4.4 -4.5)"/>
      </g>
      <g id="Group_7" data-name="Group 7" transform="translate(5.322 9.714)">
        <g id="Group_5" data-name="Group 5" transform="translate(0.464 0.356)">
          <g id="Group_3" data-name="Group 3">
            <ellipse id="Ellipse_315" data-name="Ellipse 315" class="cls-1" cx="7.096" cy="7.15" rx="7.096" ry="7.15"/>
          </g>
          <g id="Group_4" data-name="Group 4">
            <ellipse id="Ellipse_316" data-name="Ellipse 316" class="cls-2" cx="7.096" cy="7.15" rx="7.096" ry="7.15"/>
          </g>
        </g>
        <g id="Group_6" data-name="Group 6">
          <path id="Path_165" data-name="Path 165" class="cls-1" d="M23.9,47.656a7.574,7.574,0,1,1,7.56,7.587A7.59,7.59,0,0,1,23.9,47.656Zm.491-.082a7.082,7.082,0,1,0,7.068-7.068A7.093,7.093,0,0,0,24.391,47.574Z" transform="translate(-23.9 -40.095)"/>
        </g>
        <path id="Path_166" data-name="Path 166" class="cls-1" d="M34,55.125q-.368.041-.655.082a8.21,8.21,0,0,1-1.637-.027,8.51,8.51,0,0,1-2.156-.491,3.449,3.449,0,0,1-.71-.355c-.082-.027-.136-.109-.191-.164a.122.122,0,0,1,.055-.218l.327-.082c.327-.027.655-.027.982-.055a.48.48,0,0,0,.164-.027c-.055-.055-.109-.082-.136-.109A8.811,8.811,0,0,1,27.1,49.94a1.6,1.6,0,0,1-.109-.519c-.027-.191.082-.273.273-.164a3.8,3.8,0,0,1,.519.409c.164.136.355.3.519.464a.027.027,0,0,0,.027-.027c-.027-.136-.055-.3-.082-.437a10.55,10.55,0,0,1-.055-1.856,8.516,8.516,0,0,1,.382-2.02A4.857,4.857,0,0,1,28.9,45a1.282,1.282,0,0,1,.164-.246c.109-.136.218-.109.273.055a2.176,2.176,0,0,1,.082.409c.027.3.055.573.082.873a.3.3,0,0,0,.027.136,1.915,1.915,0,0,1,.164-.246,8.927,8.927,0,0,1,3.493-2.947,1.9,1.9,0,0,1,.519-.164.2.2,0,0,1,.218.055.214.214,0,0,1-.027.218,2.979,2.979,0,0,1-.355.464l-.491.573a.027.027,0,0,0,.027.027c.164-.027.327-.055.464-.082a7.559,7.559,0,0,1,2.074-.082,9.192,9.192,0,0,1,2.1.382,4.019,4.019,0,0,1,.6.273c.082.055.191.109.191.246-.027.109-.136.136-.246.164-.246.027-.464.055-.71.082-.218.027-.464.055-.71.109l.055.055a6.674,6.674,0,0,1,2.129,1.965,8.158,8.158,0,0,1,1.283,2.4,3.173,3.173,0,0,1,.109.491v.218c-.027.109-.082.164-.191.109a.981.981,0,0,1-.273-.191c-.246-.218-.464-.464-.71-.71l-.109-.109c.027.191.027.355.055.519a6.157,6.157,0,0,1-.055,1.583,8.976,8.976,0,0,1-.628,2.374c-.109.246-.246.464-.382.71-.055.109-.136.218-.273.164-.136-.027-.136-.191-.136-.3a2.953,2.953,0,0,1,0-.491v-.737h-.027a.479.479,0,0,1-.109.136,8.562,8.562,0,0,1-3.793,2.784,3.218,3.218,0,0,1-.546.109c-.055,0-.164-.027-.191-.082a.308.308,0,0,1,.027-.218,2.889,2.889,0,0,1,.273-.327c.191-.218.382-.409.573-.6C33.975,55.207,33.975,55.18,34,55.125Zm-1.828-8.051c-.109-.027-.136.027-.191.136-.382.982-.791,1.938-1.2,2.893-.027.109-.027.164.055.218.819.682,1.61,1.365,2.429,2.047.082.055.136.055.191,0,.9-.573,1.8-1.119,2.7-1.665a.194.194,0,0,0,.082-.164c-.246-1.037-.519-2.074-.764-3.111-.027-.109-.082-.136-.164-.136l-1.092-.082C33.539,47.156,32.856,47.129,32.174,47.074Z" transform="translate(-26.143 -42.106)"/>
      </g>
    </g>
    <g id="Group_16" data-name="Group 16" transform="translate(4.4 4.5)">
      <g id="Group_9" data-name="Group 9" transform="translate(42.765 1.938)">
        <path id="Path_167" data-name="Path 167" class="cls-3" d="M760.728,58.105a15.364,15.364,0,0,1-.464,1.692,5.43,5.43,0,0,1-3.439,3.166A11.879,11.879,0,0,1,746.7,61.735c.682-1.31,1.337-2.62,2.02-3.957.218.136.409.246.6.355a7.116,7.116,0,0,0,4.639,1.119,1.142,1.142,0,0,0,1.092-1.01,1.126,1.126,0,0,0-.955-1.174c-1.037-.273-2.074-.546-3.111-.791-2.183-.546-3.439-2.429-2.975-4.994a5.156,5.156,0,0,1,3.493-4.176,12.158,12.158,0,0,1,8.76.409c-.655,1.228-1.255,2.374-1.856,3.521a19.892,19.892,0,0,0-2.675-.628,3.539,3.539,0,0,0-1.665.3,1.077,1.077,0,0,0-.546.846,1.105,1.105,0,0,0,.546.764,5.855,5.855,0,0,0,1.228.382c1.037.327,2.1.6,3.084,1.01a3.583,3.583,0,0,1,2.238,3.084,2.99,2.99,0,0,0,.136.464C760.728,57.532,760.728,57.805,760.728,58.105Z" transform="translate(-586.884 -36.955)"/>
        <path id="Path_168" data-name="Path 168" class="cls-4" d="M167.159,44.32H161.1v-23.8a3.039,3.039,0,0,1,.464-.055c3.275,0,6.577-.027,9.852,0a7.59,7.59,0,0,1,6,2.62,6.743,6.743,0,0,1,1.61,3.848,9.859,9.859,0,0,1-.491,5.1,6.685,6.685,0,0,1-6.222,4.285c-1.446.082-2.92.055-4.367.082-.819,0-.819,0-.819.791V43.61A5.709,5.709,0,0,1,167.159,44.32Zm0-18.994c0,2.047,0,3.875.027,5.731,0,.136.273.355.409.355a23.046,23.046,0,0,0,2.756-.109,3.028,3.028,0,0,0,1.419-.546c1.064-.764,1.037-1.91.9-3.057a2.193,2.193,0,0,0-1.8-2.074C169.7,25.407,168.469,25.435,167.159,25.325Z" transform="translate(-161.1 -18.039)"/>
        <path id="Path_169" data-name="Path 169" class="cls-3" d="M625.348,37.636h-5.622V36.9c0-2.62,0-5.213-.027-7.832a9.733,9.733,0,0,0-.109-1.283,2.287,2.287,0,0,0-1.583-1.938,3.083,3.083,0,0,0-3.329,1.037,3.955,3.955,0,0,0-.628,2.347v8.406H608.4V11.6h5.622V23.635c.328-.3.519-.491.71-.655a6.864,6.864,0,0,1,9.525.491,4.383,4.383,0,0,1,1.037,2.893c.055,3.684.027,7.369.055,11.026C625.4,37.445,625.375,37.526,625.348,37.636Z" transform="translate(-486.328 -11.6)"/>
        <path id="Path_170" data-name="Path 170" class="cls-3" d="M364.33,26.684a6.889,6.889,0,0,0-9.825-.9,6.731,6.731,0,0,0-.273,9.252c1.992,2.156,6.523,3.138,10.07-.491v7.2c-5.158,2.347-11.517,1.146-15.065-2.866A12.445,12.445,0,0,1,352.9,19.534a12.92,12.92,0,0,1,11.08-.327.616.616,0,0,1,.355.464C364.357,21.963,364.33,24.255,364.33,26.684Z" transform="translate(-295.612 -16.341)"/>
        <path id="Path_171" data-name="Path 171" class="cls-3" d="M687.96,48.4V47.011h5.731V62.949h-5.7V61.421c-.109.055-.191.055-.218.082-2.1,2.675-6.959,2.429-9.5.437a9.054,9.054,0,0,1-.764-13.373,7.855,7.855,0,0,1,9.5-.982A11.057,11.057,0,0,0,687.96,48.4Zm-7.178,6.577a3.7,3.7,0,0,0,7.4.055,3.7,3.7,0,1,0-7.4-.055Z" transform="translate(-534.694 -36.914)"/>
        <path id="Path_172" data-name="Path 172" class="cls-3" d="M433.922,62.924h-5.595V61.368c-.164.082-.246.082-.3.136-1.828,1.992-4.121,2.211-6.632,1.747-3.248-.628-6.2-4.285-6.2-7.887a9.251,9.251,0,0,1,2.483-6.741c2.347-2.429,7.4-3.3,10.234-.491a3.233,3.233,0,0,0,.327.218V46.959h5.649C433.922,52.28,433.922,57.575,433.922,62.924Zm-5.485-7.942a3.7,3.7,0,0,0-3.684-3.739,3.782,3.782,0,0,0-3.684,3.712,3.845,3.845,0,0,0,3.739,3.684A3.743,3.743,0,0,0,428.436,54.982Z" transform="translate(-345.854 -36.888)"/>
        <path id="Path_173" data-name="Path 173" class="cls-4" d="M282.832,47.3a9.842,9.842,0,0,1,7.041,2.62,7.755,7.755,0,0,1,2.238,8.105,8.1,8.1,0,0,1-6.086,5.949,12.536,12.536,0,0,1-6.877-.109,8.553,8.553,0,0,1-5.977-7.7c-.246-4.83,3.712-8.105,7.478-8.651C281.386,47.409,282.1,47.382,282.832,47.3ZM282.8,59.472a3.671,3.671,0,1,0,.027-7.341,3.671,3.671,0,1,0-.027,7.341Z" transform="translate(-242.578 -37.557)"/>
        <path id="Path_174" data-name="Path 174" class="cls-3" d="M507.993,63.28h-5.649V55.174q0-.86-.082-1.719c-.164-1.583-1.719-2.456-3.439-1.938-1.365.409-2.074,1.528-2.1,3.248v8.46H491.1V47.315h5.622v1.828a1.97,1.97,0,0,0,.409-.355,7.03,7.03,0,0,1,9.443-.191,4.648,4.648,0,0,1,1.446,3.248C508.02,55.666,507.993,59.432,507.993,63.28Z" transform="translate(-401.04 -37.244)"/>
        <path id="Path_175" data-name="Path 175" class="cls-3" d="M570.045,58.033c0,1.474,0,2.893-.027,4.312a.66.66,0,0,1-.355.519,9.115,9.115,0,0,1-8.87-.846,7.883,7.883,0,0,1-3.466-7.86,8.451,8.451,0,0,1,8.215-7.587,8.3,8.3,0,0,1,4.066.71.74.74,0,0,1,.382.519c.027,1.446.027,2.866.027,4.421a4.841,4.841,0,0,0-4.476-.764,3.518,3.518,0,0,0-1.883,1.61,4.12,4.12,0,0,0,.519,4.749C565.624,59.316,567.588,59.4,570.045,58.033Z" transform="translate(-449.146 -37.019)"/>
        <path id="Path_176" data-name="Path 176" class="cls-4" d="M235.458,64.76c-1.828,0-3.548,0-5.267-.027-.136,0-.3-.246-.382-.382-.055-.082-.027-.246-.027-.355V49.559c0-.6.136-.819.791-.791,1.61.055,3.193.027,4.885.027V51.06a23.712,23.712,0,0,1,2.265-1.828,6,6,0,0,1,3.712-.628c.136,0,.382.218.382.355.027,1.61.027,3.248.027,4.858a22.07,22.07,0,0,0-2.211-.382,3.3,3.3,0,0,0-3.575,1.828,6.7,6.7,0,0,0-.546,2.429c-.082,2.1-.027,4.23-.027,6.359A5.285,5.285,0,0,0,235.458,64.76Z" transform="translate(-211.033 -38.478)"/>
      </g>
      <g id="Group_10" data-name="Group 10" transform="translate(0)">
        <path id="Path_177" data-name="Path 177" class="cls-5" d="M68.327,26.519a11.729,11.729,0,0,1,2.129-.791,14.171,14.171,0,0,1,2.838-.355,17.033,17.033,0,0,1,2.647.191c.791.109,1.583.218,2.4.3.873.082,1.747.164,2.593.218.573.027,1.146,0,1.719-.027s1.146-.082,1.719-.164a11.1,11.1,0,0,0,2.975-.764c.027,0,.027-.027.055-.027a13.65,13.65,0,0,1-1.665,1.119,12.451,12.451,0,0,1-3.875,1.392,4.879,4.879,0,0,1-1.665.055c-.546-.055-1.064-.082-1.61-.136-.6-.055-1.2-.136-1.774-.191-.491-.055-1.01-.109-1.5-.191-.546-.082-1.119-.164-1.665-.246-.491-.055-.955-.136-1.446-.191a16.862,16.862,0,0,0-2.62-.136H68.409c-.027,0-.082-.027-.109-.027C68.327,26.546,68.327,26.546,68.327,26.519Z" transform="translate(-50.861 -19.478)"/>
        <path id="Path_178" data-name="Path 178" class="cls-5" d="M61.355,33.274c.027,0,.055-.027.082-.027A5.882,5.882,0,0,1,64,32.864a14.635,14.635,0,0,1,1.91.273c1.037.218,2.074.409,3.111.6.628.109,1.228.246,1.856.327.6.082,1.2.136,1.774.191.437.027.873.055,1.31.055.464,0,.928-.027,1.392-.055.164,0,.327-.027.491-.027v.027a6.788,6.788,0,0,1-.764.409,7.736,7.736,0,0,1-2.565.764,6.857,6.857,0,0,1-2.784-.218c-.791-.218-1.583-.491-2.4-.737-1.064-.327-2.156-.655-3.22-.955a6.607,6.607,0,0,0-2.047-.273,6.239,6.239,0,0,0-.682.055H61.3C61.382,33.3,61.382,33.3,61.355,33.274Z" transform="translate(-45.771 -25.114)"/>
        <path id="Path_179" data-name="Path 179" class="cls-5" d="M66.6,37.5a4.745,4.745,0,0,1,1.528.464,6.2,6.2,0,0,0,1.365.464c1.037.218,2.074.409,3.084.628a6.8,6.8,0,0,1,1.01.246c-.355.027-.737.082-1.092.109l-1.61.164c-.437.055-.873.082-1.31.136-.027,0-.082-.027-.082-.055a9.2,9.2,0,0,0-2.647-2.047A.49.49,0,0,1,66.6,37.5Z" transform="translate(-49.625 -28.494)"/>
        <path id="Path_180" data-name="Path 180" class="cls-5" d="M4.427,21.338c.027-.191.027-.382.055-.6a12.439,12.439,0,0,1,1.583-5.294A12.919,12.919,0,0,1,14.58,9a11.872,11.872,0,0,1,2.62-.327,12.821,12.821,0,0,1,2.893.246.346.346,0,0,0,.164-.027,13.044,13.044,0,0,1,2.4-1.174,7.651,7.651,0,0,1,1.365-.327,10.328,10.328,0,0,1,2.047-.136c.573.027,1.146.055,1.719.109.491.027,1.01.082,1.5.109.546.055,1.092.109,1.665.136.491.055.955.082,1.446.136.464.027.9.082,1.365.136.437.027.9.082,1.337.109.873.055,1.747.082,2.647.109a5.718,5.718,0,0,0,1.665-.246,9.948,9.948,0,0,0,3.22-1.392,6.608,6.608,0,0,0,1.883-1.91c.027-.027.027-.055.082-.055-.109.218-.191.409-.3.628-.327.628-.628,1.255-.982,1.856a5.348,5.348,0,0,1-2.866,2.374,11.259,11.259,0,0,1-2.1.519,13.63,13.63,0,0,1-3.166.191c-.546-.027-1.064-.055-1.61-.109-.519-.027-1.037-.082-1.556-.136-.546-.055-1.064-.082-1.61-.136-.491-.027-.982-.082-1.474-.109-.628-.027-1.228-.082-1.856-.109a11.3,11.3,0,0,0-1.665.027,8.392,8.392,0,0,0-3.138.846c-1.174.6-2.347,1.2-3.548,1.8-.327.164-.628.3-.955.437a.246.246,0,0,1-.136.027,8.817,8.817,0,0,0-4.53,1.146c-.027,0-.027.027-.055.027-.6-.9-1.228-1.774-1.856-2.7-.246.164-.519.327-.791.491.628.9,1.228,1.8,1.828,2.675-.164.136-.355.273-.519.409a8.863,8.863,0,0,0-3,4.585c-.027.082-.027.164-.164.136-1.01-.191-2.02-.355-3.057-.519-.082,0-.109,0-.136.082l-.164.819c1.092.191,2.183.382,3.275.546a9.239,9.239,0,0,0,1.228,6.113c-.9.655-1.8,1.337-2.729,2.02.164.246.355.519.519.764.928-.682,1.828-1.337,2.729-2.02a8.894,8.894,0,0,0,5.24,3.357c-.027.3-.082.6-.109.9-.082.546-.136,1.092-.218,1.61a7.356,7.356,0,0,1-.109.764c-.027.109,0,.136.109.164.218.027.437.082.628.109h.136a6.374,6.374,0,0,1,.109-.71l.246-1.8c.027-.246.082-.519.109-.764,0-.082.027-.136.136-.109.409.027.791.055,1.2.055a8.746,8.746,0,0,0,3.6-.873c.382-.191.737-.409,1.146-.6q1.064,1.31,2.129,2.7c.246-.191.491-.382.737-.546l-2.129-2.7a9.3,9.3,0,0,0,3.193-5.349c1.119.109,2.238.218,3.384.327.027-.246.055-.491.082-.71s0-.218-.191-.218c-.519-.055-1.037-.109-1.528-.164s-.982-.109-1.474-.136c-.109,0-.136-.027-.109-.136a9.091,9.091,0,0,0-1.583-5.786c0-.027-.027-.027-.027-.055v-.027a14.216,14.216,0,0,0,4.094-.846c.191.437.409.873.6,1.31a12.47,12.47,0,0,1,.819,3.111,11.879,11.879,0,0,1,.055,2.784,13.1,13.1,0,0,1-10.07,11.6,11.787,11.787,0,0,1-3.384.327,12.743,12.743,0,0,1-7.86-2.975,12.97,12.97,0,0,1-4.421-7.178,14.191,14.191,0,0,1-.327-2.374A.164.164,0,0,0,4.4,22.13C4.427,21.857,4.427,21.584,4.427,21.338Z" transform="translate(-4.4 -4.5)"/>
      </g>
      <g id="Group_15" data-name="Group 15" transform="translate(5.322 9.714)">
        <g id="Group_13" data-name="Group 13" transform="translate(0.464 0.356)">
          <g id="Group_11" data-name="Group 11">
            <ellipse id="Ellipse_317" data-name="Ellipse 317" class="cls-6" cx="7.096" cy="7.15" rx="7.096" ry="7.15"/>
          </g>
          <g id="Group_12" data-name="Group 12">
            <ellipse id="Ellipse_318" data-name="Ellipse 318" class="cls-6" cx="7.096" cy="7.15" rx="7.096" ry="7.15"/>
          </g>
        </g>
        <g id="Group_14" data-name="Group 14">
          <path id="Path_181" data-name="Path 181" d="M23.9,47.656a7.574,7.574,0,1,1,7.56,7.587A7.59,7.59,0,0,1,23.9,47.656Zm.491-.082a7.082,7.082,0,1,0,7.068-7.068A7.093,7.093,0,0,0,24.391,47.574Z" transform="translate(-23.9 -40.095)"/>
        </g>
        <path id="Path_182" data-name="Path 182" class="cls-7" d="M34,55.125q-.368.041-.655.082a8.21,8.21,0,0,1-1.637-.027,8.51,8.51,0,0,1-2.156-.491,3.449,3.449,0,0,1-.71-.355c-.082-.027-.136-.109-.191-.164a.122.122,0,0,1,.055-.218l.327-.082c.327-.027.655-.027.982-.055a.48.48,0,0,0,.164-.027c-.055-.055-.109-.082-.136-.109A8.811,8.811,0,0,1,27.1,49.94a1.6,1.6,0,0,1-.109-.519c-.027-.191.082-.273.273-.164a3.8,3.8,0,0,1,.519.409c.164.136.355.3.519.464a.027.027,0,0,0,.027-.027c-.027-.136-.055-.3-.082-.437a10.55,10.55,0,0,1-.055-1.856,8.516,8.516,0,0,1,.382-2.02A4.857,4.857,0,0,1,28.9,45a1.282,1.282,0,0,1,.164-.246c.109-.136.218-.109.273.055a2.176,2.176,0,0,1,.082.409c.027.3.055.573.082.873a.3.3,0,0,0,.027.136,1.915,1.915,0,0,1,.164-.246,8.927,8.927,0,0,1,3.493-2.947,1.9,1.9,0,0,1,.519-.164.2.2,0,0,1,.218.055.214.214,0,0,1-.027.218,2.979,2.979,0,0,1-.355.464l-.491.573a.027.027,0,0,0,.027.027c.164-.027.327-.055.464-.082a7.559,7.559,0,0,1,2.074-.082,9.192,9.192,0,0,1,2.1.382,4.019,4.019,0,0,1,.6.273c.082.055.191.109.191.246-.027.109-.136.136-.246.164-.246.027-.464.055-.71.082-.218.027-.464.055-.71.109l.055.055a6.674,6.674,0,0,1,2.129,1.965,8.158,8.158,0,0,1,1.283,2.4,3.173,3.173,0,0,1,.109.491v.218c-.027.109-.082.164-.191.109a.981.981,0,0,1-.273-.191c-.246-.218-.464-.464-.71-.71l-.109-.109c.027.191.027.355.055.519a6.157,6.157,0,0,1-.055,1.583,8.976,8.976,0,0,1-.628,2.374c-.109.246-.246.464-.382.71-.055.109-.136.218-.273.164-.136-.027-.136-.191-.136-.3a2.953,2.953,0,0,1,0-.491v-.737h-.027a.479.479,0,0,1-.109.136,8.562,8.562,0,0,1-3.793,2.784,3.218,3.218,0,0,1-.546.109c-.055,0-.164-.027-.191-.082a.308.308,0,0,1,.027-.218,2.889,2.889,0,0,1,.273-.327c.191-.218.382-.409.573-.6C33.975,55.207,33.975,55.18,34,55.125Zm-1.828-8.051c-.109-.027-.136.027-.191.136-.382.982-.791,1.938-1.2,2.893-.027.109-.027.164.055.218.819.682,1.61,1.365,2.429,2.047.082.055.136.055.191,0,.9-.573,1.8-1.119,2.7-1.665a.194.194,0,0,0,.082-.164c-.246-1.037-.519-2.074-.764-3.111-.027-.109-.082-.136-.164-.136l-1.092-.082C33.539,47.156,32.856,47.129,32.174,47.074Z" transform="translate(-26.143 -42.106)"/>
      </g>
    </g>
  </g>
</svg>
